<svg width="21" height="22" viewBox="0 0 24 25" fill="none" xmlns="http://www.w3.org/2000/svg">
<mask id="path-1-inside-1_1324_11209" fill="white">
<path d="M0 12.3379C0 5.71047 5.37258 0.337891 12 0.337891C18.6274 0.337891 24 5.71047 24 12.3379C24 18.9653 18.6274 24.3379 12 24.3379C5.37258 24.3379 0 18.9653 0 12.3379Z"/>
</mask>
<path d="M12 23.3379C5.92487 23.3379 1 18.413 1 12.3379H-1C-1 19.5176 4.8203 25.3379 12 25.3379V23.3379ZM23 12.3379C23 18.413 18.0751 23.3379 12 23.3379V25.3379C19.1797 25.3379 25 19.5176 25 12.3379H23ZM12 1.33789C18.0751 1.33789 23 6.26276 23 12.3379H25C25 5.15819 19.1797 -0.662109 12 -0.662109V1.33789ZM12 -0.662109C4.8203 -0.662109 -1 5.15819 -1 12.3379H1C1 6.26276 5.92487 1.33789 12 1.33789V-0.662109Z" fill="url(#paint0_linear_1324_11209)" mask="url(#path-1-inside-1_1324_11209)"/>
<path fill-rule="evenodd" clip-rule="evenodd" d="M16.1542 7.71986C16.616 7.2462 17.4064 7.2078 17.9195 7.6341C18.4327 8.0604 18.4743 8.78996 18.0124 9.26363L10.5124 16.9559C10.0334 17.4473 9.20585 17.4674 8.69945 16.9999L5.36612 13.923C4.87796 13.4724 4.87796 12.7418 5.36612 12.2912C5.85427 11.8406 6.64573 11.8406 7.13388 12.2912L9.53559 14.5082L16.1542 7.71986Z" fill="#0338CD"/>
<defs>
<linearGradient id="paint0_linear_1324_11209" x1="12" y1="0.337891" x2="12" y2="24.3379" gradientUnits="userSpaceOnUse">
<stop stop-color="#F4F4F5"/>
<stop offset="1" stop-color="#C8D6E5"/>
</linearGradient>
</defs>
</svg>
