<svg width="26" height="26" viewBox="0 0 26 26" fill="currentColor" xmlns="http://www.w3.org/2000/svg">
<g clip-path="url(#clip0_1_903)">
<path d="M6.4 1C3.85 1 2.58 1 1.79 1.79C1 2.58 1 3.85 1 6.4C1 8.95 1 10.22 1.79 11.01C2.58 11.8 3.85 11.8 6.4 11.8C8.95 11.8 10.22 11.8 11.01 11.01C11.8 10.22 11.8 8.95 11.8 6.4C11.8 3.85 11.8 2.58 11.01 1.79C10.22 1 8.95 1 6.4 1ZM9.59 9.6C9.32 9.8 7.7 9.8 6.4 9.8C5.03 9.8 3.48 9.8 3.2 9.59C3 9.32 3 7.77 3 6.4C3 5.03 3 3.48 3.21 3.2C3.48 3 5.03 3 6.4 3C7.77 3 9.32 3 9.6 3.21C9.8 3.48 9.8 5.03 9.8 6.4C9.8 7.77 9.8 9.31 9.59 9.6ZM19.6 14.2C17.05 14.2 15.78 14.2 14.99 14.99C14.2 15.78 14.2 17.05 14.2 19.6C14.2 22.15 14.2 23.42 14.99 24.21C15.78 25 17.05 25 19.6 25C22.15 25 23.42 25 24.21 24.21C25 23.42 25 22.15 25 19.6C25 17.05 25 15.78 24.21 14.99C23.42 14.2 22.15 14.2 19.6 14.2ZM22.79 22.8C22.52 23 20.97 23 19.6 23C18.23 23 16.68 23 16.4 22.79C16.2 22.52 16.2 20.97 16.2 19.6C16.2 18.23 16.2 16.69 16.41 16.4C16.68 16.2 18.3 16.2 19.6 16.2C20.97 16.2 22.52 16.2 22.8 16.41C23 16.68 23 18.23 23 19.6C23 20.97 23 22.52 22.79 22.8ZM6.4 14.2C3.85 14.2 2.58 14.2 1.79 14.99C1 15.78 1 17.05 1 19.6C1 22.15 1 23.42 1.79 24.21C2.58 25 3.85 25 6.4 25C8.95 25 10.22 25 11.01 24.21C11.8 23.42 11.8 22.15 11.8 19.6C11.8 17.05 11.8 15.78 11.01 14.99C10.22 14.2 8.95 14.2 6.4 14.2ZM9.59 22.8C9.32 23 7.77 23 6.4 23C5.03 23 3.48 23 3.2 22.79C3 22.52 3 20.97 3 19.6C3 18.23 3 16.69 3.21 16.4C3.48 16.2 5.1 16.2 6.4 16.2C7.77 16.2 9.32 16.2 9.6 16.41C9.8 16.68 9.8 18.23 9.8 19.6C9.8 20.97 9.8 22.52 9.59 22.8ZM19.6 11.8C22.15 11.8 23.42 11.8 24.21 11.01C25 10.22 25 8.95 25 6.4C25 3.85 25 2.58 24.21 1.79C23.42 1 22.15 1 19.6 1C17.05 1 15.78 1 14.99 1.79C14.2 2.58 14.2 3.85 14.2 6.4C14.2 8.95 14.2 10.22 14.99 11.01C15.78 11.8 17.05 11.8 19.6 11.8ZM16.41 3.2C16.68 3 18.23 3 19.6 3C20.97 3 22.52 3 22.8 3.21C23 3.48 23 5.03 23 6.4C23 7.77 23 9.31 22.79 9.6C22.52 9.8 20.9 9.8 19.6 9.8C18.23 9.8 16.68 9.8 16.4 9.59C16.2 9.32 16.2 7.77 16.2 6.4C16.2 5.03 16.2 3.48 16.41 3.2Z" />
</g>
<defs>
<clipPath id="clip0_1_903">
<rect width="26" height="26" fill="white"/>
</clipPath>
</defs>
</svg>

