<svg width="28" height="28" viewBox="0 0 13 12" fill="none" xmlns="http://www.w3.org/2000/svg">
<path d="M9.63407 0.893066C9.776 0.893066 9.90897 0.95789 9.99635 1.06699L10.0309 1.1164L12.0042 4.36639C12.0974 4.51997 12.0929 4.71177 11.9971 4.85969L11.9617 4.90723L6.85458 10.9429C6.68149 11.1475 6.37557 11.1612 6.18475 10.9839L6.1457 10.9429L1.03857 4.90723C0.922504 4.77008 0.897057 4.57996 0.968664 4.4189L0.996136 4.36639L2.96935 1.1164C3.04301 0.995065 3.16741 0.915078 3.30604 0.896976L3.36622 0.893066H9.63407ZM8.1321 5.07164H4.86771L6.49968 9.09792L8.1321 5.07164ZM10.6063 5.07164H9.13403L7.77971 8.41217L10.6063 5.07164ZM3.86578 5.07164H2.39353L5.21964 8.41124L3.86578 5.07164ZM4.49164 1.82164H3.62668L2.2171 4.14307H3.82818L4.49164 1.82164ZM7.54293 1.82164H5.45689L4.79343 4.14307H8.20639L7.54293 1.82164ZM9.37314 1.82164H8.50818L9.17164 4.14307H10.7827L9.37314 1.82164Z" fill="#358D9E"/>
</svg>
