<svg width="24" height="22" viewBox="0 0 26 26" fill="none" xmlns="http://www.w3.org/2000/svg">
<g clip-path="url(#clip0_84_334)">
<path d="M15.87 17C15.33 16.98 14.85 17.39 14.81 17.94C14.76 18.84 14.7 19.68 14.65 20.32C14.61 20.91 14.38 21.46 13.98 21.9C13.51 22.43 12.87 22.75 12.16 22.81L11.67 22.85C9.79 23 8.19 23 6.31 22.85L5.82 22.81C5.11 22.76 4.47 22.43 4 21.9C3.61 21.45 3.38 20.91 3.33 20.32C3.1 17.01 2.98 14.55 2.98 12.99C2.98 11.43 3.1 8.96997 3.33 5.65997C3.37 5.06997 3.6 4.51997 4 4.07997C4.47 3.54997 5.11 3.22997 5.82 3.16997L6.18 3.13997C7.16 3.05997 8.18 2.97997 8.99 2.97997C9.8 2.97997 10.82 3.05997 11.8 3.13997L12.15 3.16997C12.86 3.21997 13.5 3.54997 13.97 4.07997C14.36 4.52997 14.59 5.06997 14.64 5.65997C14.68 6.30997 14.74 7.13997 14.8 8.03997C14.83 8.58997 15.32 9.00997 15.86 8.97997C16.41 8.94997 16.83 8.46997 16.8 7.91997C16.75 7.00997 16.69 6.16997 16.64 5.50997C16.57 4.48997 16.16 3.50997 15.48 2.73997C14.67 1.81997 13.54 1.25997 12.31 1.15997L11.96 1.12997C10.94 1.04997 9.88 0.969971 8.99 0.969971C8.1 0.969971 7.04 1.04997 6.02 1.12997L5.67 1.15997C4.44 1.25997 3.32 1.81997 2.51 2.73997C1.83 3.50997 1.42 4.48997 1.35 5.50997C1.11 8.90997 1 11.35 1 12.97C1 14.59 1.11 17.03 1.35 20.43C1.42 21.45 1.83 22.43 2.51 23.2C3.32 24.12 4.45 24.68 5.68 24.78L6.16 24.82C7.14 24.9 8.07 24.97 9 24.97C9.93 24.97 10.86 24.9 11.84 24.82L12.32 24.78C13.55 24.68 14.67 24.12 15.48 23.2C16.16 22.43 16.57 21.45 16.64 20.43C16.68 19.78 16.74 18.94 16.8 18.02C16.83 17.47 16.41 17 15.86 16.96L15.87 17ZM24.91 12.59C24.91 12.59 24.87 12.53 24.85 12.5C24.8 12.41 24.74 12.33 24.67 12.26C24.66 12.26 24.66 12.24 24.64 12.23L19.8 8.22997C19.37 7.87997 18.74 7.93997 18.39 8.35997C18.04 8.77997 18.1 9.41997 18.52 9.76997L21.22 12H10C9.45 12 9 12.45 9 13C9 13.55 9.45 14 10 14H21.22L18.52 16.23C18.09 16.58 18.03 17.21 18.39 17.64C18.59 17.88 18.87 18 19.16 18C19.38 18 19.61 17.92 19.8 17.77L24.64 13.77C24.64 13.77 24.66 13.75 24.67 13.74C24.75 13.67 24.8 13.59 24.85 13.5C24.87 13.47 24.9 13.44 24.91 13.41C24.97 13.28 25 13.15 25 13C25 12.85 24.97 12.72 24.91 12.59Z" fill="#8B8B8B"/>
</g>
<defs>
<clipPath id="clip0_84_334">
<rect width="26" height="26" fill="white"/>
</clipPath>
</defs>
</svg>
