<svg width="26" height="26" viewBox="0 0 26 26" fill="currentColor" xmlns="http://www.w3.org/2000/svg">
<path fill-rule="evenodd" clip-rule="evenodd" d="M9.74935 1.354C6.90738 1.354 4.60352 3.65787 4.60352 6.49984C4.60352 9.3418 6.90738 11.6457 9.74935 11.6457C12.5913 11.6457 14.8952 9.3418 14.8952 6.49984C14.8952 3.65787 12.5913 1.354 9.74935 1.354ZM6.22852 6.49984C6.22852 4.55533 7.80485 2.979 9.74935 2.979C11.6939 2.979 13.2702 4.55533 13.2702 6.49984C13.2702 8.44434 11.6939 10.0207 9.74935 10.0207C7.80485 10.0207 6.22852 8.44434 6.22852 6.49984Z" fill="currentColor"/>
<path d="M16.2493 2.43734C15.8006 2.43734 15.4368 2.80111 15.4368 3.24984C15.4368 3.69857 15.8006 4.06234 16.2493 4.06234C17.5955 4.06234 18.6868 5.15364 18.6868 6.49984C18.6868 7.84603 17.5955 8.93734 16.2493 8.93734C15.8006 8.93734 15.4368 9.30111 15.4368 9.74984C15.4368 10.1986 15.8006 10.5623 16.2493 10.5623C18.493 10.5623 20.3118 8.74349 20.3118 6.49984C20.3118 4.25618 18.493 2.43734 16.2493 2.43734Z" fill="currentColor"/>
<path fill-rule="evenodd" clip-rule="evenodd" d="M3.98401 14.6469C5.49999 13.7807 7.54007 13.2707 9.74935 13.2707C11.9586 13.2707 13.9987 13.7807 15.5147 14.6469C17.0077 15.5001 18.1452 16.8025 18.1452 18.4165C18.1452 20.0305 17.0077 21.3329 15.5147 22.1861C13.9987 23.0524 11.9586 23.5623 9.74935 23.5623C7.54007 23.5623 5.49999 23.0524 3.98401 22.1861C2.49101 21.3329 1.35352 20.0305 1.35352 18.4165C1.35352 16.8025 2.49101 15.5001 3.98401 14.6469ZM4.79024 16.0578C3.53861 16.773 2.97852 17.6373 2.97852 18.4165C2.97852 19.1957 3.53861 20.06 4.79024 20.7752C6.01888 21.4773 7.77047 21.9373 9.74935 21.9373C11.7282 21.9373 13.4798 21.4773 14.7085 20.7752C15.9601 20.06 16.5202 19.1957 16.5202 18.4165C16.5202 17.6373 15.9601 16.773 14.7085 16.0578C13.4798 15.3557 11.7282 14.8957 9.74935 14.8957C7.77047 14.8957 6.01888 15.3557 4.79024 16.0578Z" fill="currentColor"/>
<path d="M19.6734 14.3729C19.2351 14.2767 18.8018 14.5541 18.7057 14.9925C18.6096 15.4308 18.887 15.864 19.3253 15.9601C20.1837 16.1484 20.8697 16.4717 21.3225 16.8422C21.7758 17.2132 21.9368 17.5755 21.9368 17.8748C21.9368 18.1464 21.8062 18.4653 21.446 18.7999C21.0832 19.1369 20.5258 19.4483 19.8068 19.6648C19.3771 19.7942 19.1336 20.2474 19.263 20.6771C19.3924 21.1067 19.8456 21.3502 20.2753 21.2208C21.1664 20.9525 21.9631 20.5375 22.552 19.9905C23.1434 19.4411 23.5618 18.7184 23.5618 17.8748C23.5618 16.938 23.0481 16.1545 22.3516 15.5846C21.6544 15.0141 20.7154 14.6014 19.6734 14.3729Z" fill="currentColor"/>
<path fill-rule="evenodd" clip-rule="evenodd" d="M9.74935 1.354C6.90738 1.354 4.60352 3.65787 4.60352 6.49984C4.60352 9.3418 6.90738 11.6457 9.74935 11.6457C12.5913 11.6457 14.8952 9.3418 14.8952 6.49984C14.8952 3.65787 12.5913 1.354 9.74935 1.354ZM6.22852 6.49984C6.22852 4.55533 7.80485 2.979 9.74935 2.979C11.6939 2.979 13.2702 4.55533 13.2702 6.49984C13.2702 8.44434 11.6939 10.0207 9.74935 10.0207C7.80485 10.0207 6.22852 8.44434 6.22852 6.49984Z" stroke="#8B8B8B" stroke-width="0.3"/>
<path d="M16.2493 2.43734C15.8006 2.43734 15.4368 2.80111 15.4368 3.24984C15.4368 3.69857 15.8006 4.06234 16.2493 4.06234C17.5955 4.06234 18.6868 5.15364 18.6868 6.49984C18.6868 7.84603 17.5955 8.93734 16.2493 8.93734C15.8006 8.93734 15.4368 9.30111 15.4368 9.74984C15.4368 10.1986 15.8006 10.5623 16.2493 10.5623C18.493 10.5623 20.3118 8.74349 20.3118 6.49984C20.3118 4.25618 18.493 2.43734 16.2493 2.43734Z" stroke="#8B8B8B" stroke-width="0.3"/>
<path fill-rule="evenodd" clip-rule="evenodd" d="M3.98401 14.6469C5.49999 13.7807 7.54007 13.2707 9.74935 13.2707C11.9586 13.2707 13.9987 13.7807 15.5147 14.6469C17.0077 15.5001 18.1452 16.8025 18.1452 18.4165C18.1452 20.0305 17.0077 21.3329 15.5147 22.1861C13.9987 23.0524 11.9586 23.5623 9.74935 23.5623C7.54007 23.5623 5.49999 23.0524 3.98401 22.1861C2.49101 21.3329 1.35352 20.0305 1.35352 18.4165C1.35352 16.8025 2.49101 15.5001 3.98401 14.6469ZM4.79024 16.0578C3.53861 16.773 2.97852 17.6373 2.97852 18.4165C2.97852 19.1957 3.53861 20.06 4.79024 20.7752C6.01888 21.4773 7.77047 21.9373 9.74935 21.9373C11.7282 21.9373 13.4798 21.4773 14.7085 20.7752C15.9601 20.06 16.5202 19.1957 16.5202 18.4165C16.5202 17.6373 15.9601 16.773 14.7085 16.0578C13.4798 15.3557 11.7282 14.8957 9.74935 14.8957C7.77047 14.8957 6.01888 15.3557 4.79024 16.0578Z" stroke="#8B8B8B" stroke-width="0.3"/>
<path d="M19.6734 14.3729C19.2351 14.2767 18.8018 14.5541 18.7057 14.9925C18.6096 15.4308 18.887 15.864 19.3253 15.9601C20.1837 16.1484 20.8697 16.4717 21.3225 16.8422C21.7758 17.2132 21.9368 17.5755 21.9368 17.8748C21.9368 18.1464 21.8062 18.4653 21.446 18.7999C21.0832 19.1369 20.5258 19.4483 19.8068 19.6648C19.3771 19.7942 19.1336 20.2474 19.263 20.6771C19.3924 21.1067 19.8456 21.3502 20.2753 21.2208C21.1664 20.9525 21.9631 20.5375 22.552 19.9905C23.1434 19.4411 23.5618 18.7184 23.5618 17.8748C23.5618 16.938 23.0481 16.1545 22.3516 15.5846C21.6544 15.0141 20.7154 14.6014 19.6734 14.3729Z" stroke="#8B8B8B" stroke-width="0.3"/>
</svg>
